<svg xmlns="http://www.w3.org/2000/svg" width="1280" height="720" viewBox="0 0 1280 720">
<rect x="0" y="0" width="100%" height="100%" fill="white"/>
<text x="120" y="36" font-size="24" font-family="Menlo, Consolas, monospace" fill="#111">rest :: latency_p50_ms</text>
<line x1="120" y1="560.00" x2="1240" y2="560.00" stroke="#e5e7eb" stroke-width="1"/>
<text x="108" y="564.00" text-anchor="end" font-size="12" font-family="Menlo, Consolas, monospace" fill="#374151">0.00</text>
<line x1="120" y1="462.00" x2="1240" y2="462.00" stroke="#e5e7eb" stroke-width="1"/>
<text x="108" y="466.00" text-anchor="end" font-size="12" font-family="Menlo, Consolas, monospace" fill="#374151">1405.71</text>
<line x1="120" y1="364.00" x2="1240" y2="364.00" stroke="#e5e7eb" stroke-width="1"/>
<text x="108" y="368.00" text-anchor="end" font-size="12" font-family="Menlo, Consolas, monospace" fill="#374151">2811.42</text>
<line x1="120" y1="266.00" x2="1240" y2="266.00" stroke="#e5e7eb" stroke-width="1"/>
<text x="108" y="270.00" text-anchor="end" font-size="12" font-family="Menlo, Consolas, monospace" fill="#374151">4217.14</text>
<line x1="120" y1="168.00" x2="1240" y2="168.00" stroke="#e5e7eb" stroke-width="1"/>
<text x="108" y="172.00" text-anchor="end" font-size="12" font-family="Menlo, Consolas, monospace" fill="#374151">5622.85</text>
<line x1="120" y1="70.00" x2="1240" y2="70.00" stroke="#e5e7eb" stroke-width="1"/>
<text x="108" y="74.00" text-anchor="end" font-size="12" font-family="Menlo, Consolas, monospace" fill="#374151">7028.56</text>
<line x1="120" y1="70" x2="120" y2="560" stroke="#111827" stroke-width="2"/>
<line x1="120" y1="560" x2="1240" y2="560" stroke="#111827" stroke-width="2"/>
<rect x="228.00" y="114.55" width="64.00" height="445.45" fill="#1d4ed8" opacity="0.88"/>
<line x1="260.00" y1="114.55" x2="260.00" y2="114.55" stroke="#111827" stroke-width="2"/>
<line x1="253.00" y1="114.55" x2="267.00" y2="114.55" stroke="#111827" stroke-width="2"/>
<line x1="253.00" y1="114.55" x2="267.00" y2="114.55" stroke="#111827" stroke-width="2"/>
<text x="260.00" y="106.55" text-anchor="middle" font-size="11" font-family="Menlo, Consolas, monospace" fill="#111827">6389.60</text>
<g transform="translate(260.00,572.00) rotate(40)"><text x="0" y="0" font-size="11" font-family="Menlo, Consolas, monospace" fill="#374151">admin_get_attendees|a3_rr12_wr8_rc3_wc2</text></g>
<rect x="508.00" y="559.96" width="64.00" height="0.04" fill="#0f766e" opacity="0.88"/>
<line x1="540.00" y1="559.96" x2="540.00" y2="559.96" stroke="#111827" stroke-width="2"/>
<line x1="533.00" y1="559.96" x2="547.00" y2="559.96" stroke="#111827" stroke-width="2"/>
<line x1="533.00" y1="559.96" x2="547.00" y2="559.96" stroke="#111827" stroke-width="2"/>
<text x="540.00" y="551.96" text-anchor="middle" font-size="11" font-family="Menlo, Consolas, monospace" fill="#111827">0.62</text>
<g transform="translate(540.00,572.00) rotate(40)"><text x="0" y="0" font-size="11" font-family="Menlo, Consolas, monospace" fill="#374151">admin_get_chat_history|a3_rr12_wr8_rc3_wc2</text></g>
<rect x="788.00" y="559.89" width="64.00" height="0.11" fill="#1d4ed8" opacity="0.88"/>
<line x1="820.00" y1="559.89" x2="820.00" y2="559.89" stroke="#111827" stroke-width="2"/>
<line x1="813.00" y1="559.89" x2="827.00" y2="559.89" stroke="#111827" stroke-width="2"/>
<line x1="813.00" y1="559.89" x2="827.00" y2="559.89" stroke="#111827" stroke-width="2"/>
<text x="820.00" y="551.89" text-anchor="middle" font-size="11" font-family="Menlo, Consolas, monospace" fill="#111827">1.57</text>
<g transform="translate(820.00,572.00) rotate(40)"><text x="0" y="0" font-size="11" font-family="Menlo, Consolas, monospace" fill="#374151">attendee_post_help|a3_rr12_wr8_rc3_wc2</text></g>
<rect x="1068.00" y="559.81" width="64.00" height="0.19" fill="#0f766e" opacity="0.88"/>
<line x1="1100.00" y1="559.81" x2="1100.00" y2="559.81" stroke="#111827" stroke-width="2"/>
<line x1="1093.00" y1="559.81" x2="1107.00" y2="559.81" stroke="#111827" stroke-width="2"/>
<line x1="1093.00" y1="559.81" x2="1107.00" y2="559.81" stroke="#111827" stroke-width="2"/>
<text x="1100.00" y="551.81" text-anchor="middle" font-size="11" font-family="Menlo, Consolas, monospace" fill="#111827">2.76</text>
<g transform="translate(1100.00,572.00) rotate(40)"><text x="0" y="0" font-size="11" font-family="Menlo, Consolas, monospace" fill="#374151">attendee_post_submission_link|a3_rr12_wr8_rc3_wc2</text></g>
<text x="24" y="26" font-size="12" font-family="Menlo, Consolas, monospace" fill="#374151">Bars: median, whiskers: bootstrap 95% CI</text>
</svg>