<svg xmlns="http://www.w3.org/2000/svg" width="1280" height="720" viewBox="0 0 1280 720">
<rect x="0" y="0" width="100%" height="100%" fill="white"/>
<text x="120" y="36" font-size="24" font-family="Menlo, Consolas, monospace" fill="#111">rest :: rps</text>
<line x1="120" y1="560.00" x2="1240" y2="560.00" stroke="#e5e7eb" stroke-width="1"/>
<text x="108" y="564.00" text-anchor="end" font-size="12" font-family="Menlo, Consolas, monospace" fill="#374151">0.00</text>
<line x1="120" y1="462.00" x2="1240" y2="462.00" stroke="#e5e7eb" stroke-width="1"/>
<text x="108" y="466.00" text-anchor="end" font-size="12" font-family="Menlo, Consolas, monospace" fill="#374151">501.91</text>
<line x1="120" y1="364.00" x2="1240" y2="364.00" stroke="#e5e7eb" stroke-width="1"/>
<text x="108" y="368.00" text-anchor="end" font-size="12" font-family="Menlo, Consolas, monospace" fill="#374151">1003.81</text>
<line x1="120" y1="266.00" x2="1240" y2="266.00" stroke="#e5e7eb" stroke-width="1"/>
<text x="108" y="270.00" text-anchor="end" font-size="12" font-family="Menlo, Consolas, monospace" fill="#374151">1505.72</text>
<line x1="120" y1="168.00" x2="1240" y2="168.00" stroke="#e5e7eb" stroke-width="1"/>
<text x="108" y="172.00" text-anchor="end" font-size="12" font-family="Menlo, Consolas, monospace" fill="#374151">2007.62</text>
<line x1="120" y1="70.00" x2="1240" y2="70.00" stroke="#e5e7eb" stroke-width="1"/>
<text x="108" y="74.00" text-anchor="end" font-size="12" font-family="Menlo, Consolas, monospace" fill="#374151">2509.53</text>
<line x1="120" y1="70" x2="120" y2="560" stroke="#111827" stroke-width="2"/>
<line x1="120" y1="560" x2="1240" y2="560" stroke="#111827" stroke-width="2"/>
<rect x="228.00" y="559.92" width="64.00" height="0.08" fill="#1d4ed8" opacity="0.88"/>
<line x1="260.00" y1="559.92" x2="260.00" y2="559.92" stroke="#111827" stroke-width="2"/>
<line x1="253.00" y1="559.92" x2="267.00" y2="559.92" stroke="#111827" stroke-width="2"/>
<line x1="253.00" y1="559.92" x2="267.00" y2="559.92" stroke="#111827" stroke-width="2"/>
<text x="260.00" y="551.92" text-anchor="middle" font-size="11" font-family="Menlo, Consolas, monospace" fill="#111827">0.43</text>
<g transform="translate(260.00,572.00) rotate(40)"><text x="0" y="0" font-size="11" font-family="Menlo, Consolas, monospace" fill="#374151">admin_get_attendees|a3_rr12_wr8_rc3_wc2</text></g>
<rect x="508.00" y="114.55" width="64.00" height="445.45" fill="#0f766e" opacity="0.88"/>
<line x1="540.00" y1="114.55" x2="540.00" y2="114.55" stroke="#111827" stroke-width="2"/>
<line x1="533.00" y1="114.55" x2="547.00" y2="114.55" stroke="#111827" stroke-width="2"/>
<line x1="533.00" y1="114.55" x2="547.00" y2="114.55" stroke="#111827" stroke-width="2"/>
<text x="540.00" y="106.55" text-anchor="middle" font-size="11" font-family="Menlo, Consolas, monospace" fill="#111827">2281.39</text>
<g transform="translate(540.00,572.00) rotate(40)"><text x="0" y="0" font-size="11" font-family="Menlo, Consolas, monospace" fill="#374151">admin_get_chat_history|a3_rr12_wr8_rc3_wc2</text></g>
<rect x="788.00" y="462.54" width="64.00" height="97.46" fill="#1d4ed8" opacity="0.88"/>
<line x1="820.00" y1="462.54" x2="820.00" y2="462.54" stroke="#111827" stroke-width="2"/>
<line x1="813.00" y1="462.54" x2="827.00" y2="462.54" stroke="#111827" stroke-width="2"/>
<line x1="813.00" y1="462.54" x2="827.00" y2="462.54" stroke="#111827" stroke-width="2"/>
<text x="820.00" y="454.54" text-anchor="middle" font-size="11" font-family="Menlo, Consolas, monospace" fill="#111827">499.16</text>
<g transform="translate(820.00,572.00) rotate(40)"><text x="0" y="0" font-size="11" font-family="Menlo, Consolas, monospace" fill="#374151">attendee_post_help|a3_rr12_wr8_rc3_wc2</text></g>
<rect x="1068.00" y="439.50" width="64.00" height="120.50" fill="#0f766e" opacity="0.88"/>
<line x1="1100.00" y1="439.50" x2="1100.00" y2="439.50" stroke="#111827" stroke-width="2"/>
<line x1="1093.00" y1="439.50" x2="1107.00" y2="439.50" stroke="#111827" stroke-width="2"/>
<line x1="1093.00" y1="439.50" x2="1107.00" y2="439.50" stroke="#111827" stroke-width="2"/>
<text x="1100.00" y="431.50" text-anchor="middle" font-size="11" font-family="Menlo, Consolas, monospace" fill="#111827">617.11</text>
<g transform="translate(1100.00,572.00) rotate(40)"><text x="0" y="0" font-size="11" font-family="Menlo, Consolas, monospace" fill="#374151">attendee_post_submission_link|a3_rr12_wr8_rc3_wc2</text></g>
<text x="24" y="26" font-size="12" font-family="Menlo, Consolas, monospace" fill="#374151">Bars: median, whiskers: bootstrap 95% CI</text>
</svg>